<?xml version="1.0" encoding="utf-8"?>
<!-- Generator: Adobe Illustrator 24.0.2, SVG Export Plug-In . SVG Version: 6.00 Build 0)  -->
<svg version="1.1" id="Capa_1" xmlns="http://www.w3.org/2000/svg" xmlns:xlink="http://www.w3.org/1999/xlink" x="0px" y="0px"
	 viewBox="0 0 113.39 51.75" style="enable-background:new 0 0 113.39 51.75;" xml:space="preserve">
<style type="text/css">
	.st0{fill:url(#SVGID_1_);stroke:#000000;stroke-width:1.5;stroke-miterlimit:10;}
	.st1{fill:url(#SVGID_2_);stroke:#000000;stroke-width:1.5;stroke-miterlimit:10;}
	.st2{fill:url(#SVGID_3_);stroke:#000000;stroke-width:1.5;stroke-miterlimit:10;}
	.st3{fill:url(#SVGID_4_);stroke:#000000;stroke-width:1.5;stroke-miterlimit:10;}
	.st4{fill:url(#SVGID_5_);stroke:#000000;stroke-width:1.5;stroke-miterlimit:10;}
	.st5{fill:url(#SVGID_6_);stroke:#000000;stroke-width:1.5;stroke-miterlimit:10;}
	.st6{fill:url(#SVGID_7_);stroke:#000000;stroke-width:1.5;stroke-miterlimit:10;}
	.st7{fill:url(#SVGID_8_);stroke:#000000;stroke-width:1.5;stroke-miterlimit:10;}
	.st8{fill:url(#SVGID_9_);stroke:#000000;stroke-width:1.5;stroke-miterlimit:10;}
	.st9{fill:url(#SVGID_10_);stroke:#000000;stroke-width:1.5;stroke-miterlimit:10;}
	.st10{fill:url(#SVGID_11_);stroke:#000000;stroke-width:1.5;stroke-miterlimit:10;}
	.st11{fill:url(#SVGID_12_);stroke:#000000;stroke-width:1.5;stroke-miterlimit:10;}
</style>
<linearGradient id="SVGID_1_" gradientUnits="userSpaceOnUse" x1="8.8469" y1="14.8754" x2="25.347" y2="6.3441">
	<stop  offset="0" style="stop-color:#2581C4"/>
	<stop  offset="1" style="stop-color:#2581C4;stop-opacity:0"/>
</linearGradient>
<path class="st0" d="M3.43,4.26c9.91,20.11,15.68,6.64,15.68,6.64l5.03,9.48l5.33-16.12"/>
<linearGradient id="SVGID_2_" gradientUnits="userSpaceOnUse" x1="20.6278" y1="37.6603" x2="37.1278" y2="29.1291">
	<stop  offset="0" style="stop-color:#2581C4"/>
	<stop  offset="1" style="stop-color:#2581C4;stop-opacity:0"/>
</linearGradient>
<path class="st1" d="M23.99,21.33c-0.09,0.33-0.17,0.66-0.25,0.97c-4.63,18.83,13.27-1.92,13.27-1.92
	c-3.55,25.23-3.55,25.23-3.55,25.23"/>
<linearGradient id="SVGID_3_" gradientUnits="userSpaceOnUse" x1="18.9201" y1="34.3574" x2="35.4201" y2="25.8262">
	<stop  offset="0" style="stop-color:#2581C4"/>
	<stop  offset="1" style="stop-color:#2581C4;stop-opacity:0"/>
</linearGradient>
<line class="st2" x1="17.48" y1="44.66" x2="23.75" y2="22.3"/>
<linearGradient id="SVGID_4_" gradientUnits="userSpaceOnUse" x1="37.8401" y1="26.7112" x2="55.0027" y2="26.7112">
	<stop  offset="0.2698" style="stop-color:#FFEF26"/>
	<stop  offset="0.2804" style="stop-color:#FFE207"/>
	<stop  offset="0.2942" style="stop-color:#FFD700"/>
	<stop  offset="0.3114" style="stop-color:#FFCE00"/>
	<stop  offset="0.3355" style="stop-color:#FEC900"/>
	<stop  offset="0.4026" style="stop-color:#FDC800"/>
	<stop  offset="0.4886" style="stop-color:#FDC700"/>
	<stop  offset="0.5196" style="stop-color:#FCC200"/>
	<stop  offset="0.5417" style="stop-color:#FABA00"/>
	<stop  offset="0.5596" style="stop-color:#F7AD19"/>
	<stop  offset="0.5747" style="stop-color:#F49D2B"/>
	<stop  offset="0.5794" style="stop-color:#F29630"/>
	<stop  offset="0.6681" style="stop-color:#F29531"/>
	<stop  offset="0.6852" style="stop-color:#F19332"/>
	<stop  offset="0.7973" style="stop-color:#F19133"/>
	<stop  offset="0.8167" style="stop-color:#F18F34"/>
	<stop  offset="0.8473" style="stop-color:#F08E34"/>
	<stop  offset="0.8583" style="stop-color:#EF8834"/>
	<stop  offset="0.8662" style="stop-color:#EE7E34"/>
	<stop  offset="0.8725" style="stop-color:#EB7033"/>
	<stop  offset="0.8771" style="stop-color:#E95F32"/>
	<stop  offset="0.9096" style="stop-color:#E85C31"/>
	<stop  offset="0.9379" style="stop-color:#E75230"/>
	<stop  offset="0.9645" style="stop-color:#E43F2F"/>
	<stop  offset="0.9788" style="stop-color:#E3312D"/>
</linearGradient>
<polyline class="st3" points="37.84,45.61 46.13,7.81 55,44.74 42.87,26.71 55,26.71 "/>
<linearGradient id="SVGID_5_" gradientUnits="userSpaceOnUse" x1="44.8637" y1="27.0721" x2="49.0167" y2="27.0721" gradientTransform="matrix(1.5106 0 0 1.9367 -8.7713 -10.8493)">
	<stop  offset="0" style="stop-color:#2581C4"/>
	<stop  offset="1" style="stop-color:#2581C4;stop-opacity:0"/>
</linearGradient>
<path class="st4" d="M65.27,35.56c-3.12-0.62-5.8,1.89-6.21,4.74c-0.47,3.25,1.93,7.36,5.62,7.4"/>
<linearGradient id="SVGID_6_" gradientUnits="userSpaceOnUse" x1="67.7889" y1="42.0889" x2="75.7784" y2="42.0889">
	<stop  offset="0" style="stop-color:#2581C4"/>
	<stop  offset="1" style="stop-color:#2581C4;stop-opacity:0"/>
</linearGradient>
<polygon class="st5" points="71.93,36.48 67.79,47.7 75.78,47.7 "/>
<linearGradient id="SVGID_7_" gradientUnits="userSpaceOnUse" x1="78.7375" y1="41.5808" x2="83.8045" y2="41.5808">
	<stop  offset="0" style="stop-color:#2581C4"/>
	<stop  offset="1" style="stop-color:#2581C4;stop-opacity:0"/>
</linearGradient>
<path class="st6" d="M79.57,47.7c2.61-0.09,4.5-3.53,4.2-6.92c-0.32-3.65-3.07-5.99-4.2-5.14C77.85,36.92,79.28,45.91,79.57,47.7"/>
<linearGradient id="SVGID_8_" gradientUnits="userSpaceOnUse" x1="87.1708" y1="42.0074" x2="92.3492" y2="42.0074">
	<stop  offset="0" style="stop-color:#2581C4"/>
	<stop  offset="1" style="stop-color:#2581C4;stop-opacity:0"/>
</linearGradient>
<path class="st7" d="M89.76,42.01l-2.52,0l0.07-5.69c-0.03,2.35-0.05,4.21-0.07,5.69c-0.07,5.69-0.07,5.69-0.07,5.69h5.18"/>
<linearGradient id="SVGID_9_" gradientUnits="userSpaceOnUse" x1="87.3147" y1="36.3945" x2="92.3492" y2="36.3945">
	<stop  offset="0" style="stop-color:#2581C4"/>
	<stop  offset="1" style="stop-color:#2581C4;stop-opacity:0"/>
</linearGradient>
<line class="st8" x1="92.35" y1="36.47" x2="87.31" y2="36.32"/>
<linearGradient id="SVGID_10_" gradientUnits="userSpaceOnUse" x1="68.8012" y1="27.219" x2="68.8012" y2="27.219" gradientTransform="matrix(1.5106 0 0 1.9367 -8.7713 -10.8493)">
	<stop  offset="0" style="stop-color:#2581C4"/>
	<stop  offset="1" style="stop-color:#2581C4;stop-opacity:0"/>
</linearGradient>
<line class="st9" x1="95.16" y1="35.46" x2="95.16" y2="48.27"/>
<linearGradient id="SVGID_11_" gradientUnits="userSpaceOnUse" x1="68.8012" y1="27.4393" x2="72.523" y2="27.4393" gradientTransform="matrix(1.5106 0 0 1.9367 -8.7713 -10.8493)">
	<stop  offset="0" style="stop-color:#2581C4"/>
	<stop  offset="1" style="stop-color:#2581C4;stop-opacity:0"/>
</linearGradient>
<path class="st10" d="M95.16,36.32c3.14,4.74,3.14,4.74,3.14,4.74l2.48-4.74v11.95"/>
<linearGradient id="SVGID_12_" gradientUnits="userSpaceOnUse" x1="74.6778" y1="28.2321" x2="77.3222" y2="28.2321" gradientTransform="matrix(1.5106 0 0 2.1787 -8.7713 -19.6446)">
	<stop  offset="0" style="stop-color:#2581C4"/>
	<stop  offset="1" style="stop-color:#2581C4;stop-opacity:0"/>
</linearGradient>
<polyline class="st11" points="104.04,35.46 108.03,41.39 108.03,35.46 108.03,48.27 "/>
</svg>
