<?xml version="1.0" encoding="utf-8"?>
<!-- Generator: Adobe Illustrator 24.0.2, SVG Export Plug-In . SVG Version: 6.00 Build 0)  -->
<svg version="1.1" id="Capa_1" xmlns="http://www.w3.org/2000/svg" xmlns:xlink="http://www.w3.org/1999/xlink" x="0px" y="0px"
	 viewBox="0 0 113.4 51.8" style="enable-background:new 0 0 113.4 51.8;" xml:space="preserve">
<style type="text/css">
	.st0{fill:url(#SVGID_1_);stroke:#000000;stroke-width:1.5;stroke-miterlimit:10;}
	.st1{fill:url(#SVGID_2_);stroke:#000000;stroke-width:1.5;stroke-miterlimit:10;}
	.st2{fill:none;stroke:#000000;stroke-width:1.5;stroke-miterlimit:10;}
	.st3{fill:url(#SVGID_3_);stroke:#000000;stroke-width:1.5;stroke-miterlimit:10;}
	.st4{fill:url(#SVGID_4_);stroke:#000000;stroke-width:1.5;stroke-miterlimit:10;}
	.st5{fill:url(#SVGID_5_);stroke:#000000;stroke-width:1.5;stroke-miterlimit:10;}
	.st6{fill:url(#SVGID_6_);stroke:#000000;stroke-width:1.5;stroke-miterlimit:10;}
	.st7{fill:url(#SVGID_7_);stroke:#000000;stroke-width:1.5;stroke-miterlimit:10;}
	.st8{fill:url(#SVGID_8_);stroke:#000000;stroke-width:1.5;stroke-miterlimit:10;}
	.st9{fill:url(#SVGID_9_);stroke:#000000;stroke-width:1.5;stroke-miterlimit:10;}
	.st10{opacity:0.3;fill:url(#SVGID_10_);stroke:#010007;stroke-width:1.5;stroke-miterlimit:10;}
</style>
<linearGradient id="SVGID_1_" gradientUnits="userSpaceOnUse" x1="8.846" y1="38.1657" x2="25.3461" y2="46.697" gradientTransform="matrix(1 0 0 -1 0 53.0394)">
	<stop  offset="0" style="stop-color:#2581C4"/>
	<stop  offset="1" style="stop-color:#2581C4;stop-opacity:0"/>
</linearGradient>
<path class="st0" d="M3.4,4.3c9.9,20.1,15.7,6.6,15.7,6.6l5,9.5l5.3-16.1"/>
<linearGradient id="SVGID_2_" gradientUnits="userSpaceOnUse" x1="20.6263" y1="15.382" x2="37.1263" y2="23.9132" gradientTransform="matrix(1 0 0 -1 0 53.0394)">
	<stop  offset="0" style="stop-color:#2581C4"/>
	<stop  offset="1" style="stop-color:#2581C4;stop-opacity:0"/>
</linearGradient>
<path class="st1" d="M24,21.3c-0.1,0.3-0.2,0.7-0.3,1C19.1,41.1,37,20.4,37,20.4c-3.5,25.2-3.5,25.2-3.5,25.2"/>
<line class="st2" x1="17.5" y1="44.7" x2="23.8" y2="22.3"/>
<linearGradient id="SVGID_3_" gradientUnits="userSpaceOnUse" x1="37.84" y1="26.3294" x2="55" y2="26.3294" gradientTransform="matrix(1 0 0 -1 0 53.0394)">
	<stop  offset="0.2698" style="stop-color:#FFEF26"/>
	<stop  offset="0.2804" style="stop-color:#FFE207"/>
	<stop  offset="0.2942" style="stop-color:#FFD700"/>
	<stop  offset="0.3114" style="stop-color:#FFCE00"/>
	<stop  offset="0.3355" style="stop-color:#FEC900"/>
	<stop  offset="0.4026" style="stop-color:#FDC800"/>
	<stop  offset="0.4886" style="stop-color:#FDC700"/>
	<stop  offset="0.5196" style="stop-color:#FCC200"/>
	<stop  offset="0.5417" style="stop-color:#FABA00"/>
	<stop  offset="0.5596" style="stop-color:#F7AD19"/>
	<stop  offset="0.5747" style="stop-color:#F49D2B"/>
	<stop  offset="0.5794" style="stop-color:#F29630"/>
	<stop  offset="0.6681" style="stop-color:#F29531"/>
	<stop  offset="0.6852" style="stop-color:#F19332"/>
	<stop  offset="0.7973" style="stop-color:#F19133"/>
	<stop  offset="0.8167" style="stop-color:#F18F34"/>
	<stop  offset="0.8473" style="stop-color:#F08E34"/>
	<stop  offset="0.8583" style="stop-color:#EF8834"/>
	<stop  offset="0.8662" style="stop-color:#EE7E34"/>
	<stop  offset="0.8725" style="stop-color:#EB7033"/>
	<stop  offset="0.8771" style="stop-color:#E95F32"/>
	<stop  offset="0.9096" style="stop-color:#E85C31"/>
	<stop  offset="0.9379" style="stop-color:#E75230"/>
	<stop  offset="0.9645" style="stop-color:#E43F2F"/>
	<stop  offset="0.9788" style="stop-color:#E3312D"/>
</linearGradient>
<polyline class="st3" points="37.8,45.6 46.1,7.8 55,44.7 42.9,26.7 55,26.7 "/>
<linearGradient id="SVGID_4_" gradientUnits="userSpaceOnUse" x1="44.8647" y1="33.7051" x2="49.0145" y2="33.7051" gradientTransform="matrix(1.5106 0 0 -1.9367 -8.7713 106.8592)">
	<stop  offset="0" style="stop-color:#2581C4"/>
	<stop  offset="1" style="stop-color:#2581C4;stop-opacity:0"/>
</linearGradient>
<path class="st4" d="M65.3,35.6c-3.1-0.6-5.8,1.9-6.2,4.7c-0.5,3.3,1.9,7.4,5.6,7.4"/>
<linearGradient id="SVGID_5_" gradientUnits="userSpaceOnUse" x1="67.79" y1="10.9494" x2="75.78" y2="10.9494" gradientTransform="matrix(1 0 0 -1 0 53.0394)">
	<stop  offset="0" style="stop-color:#2581C4"/>
	<stop  offset="1" style="stop-color:#2581C4;stop-opacity:0"/>
</linearGradient>
<polygon class="st5" points="71.9,36.5 67.8,47.7 75.8,47.7 "/>
<linearGradient id="SVGID_6_" gradientUnits="userSpaceOnUse" x1="78.7369" y1="11.4567" x2="83.8013" y2="11.4567" gradientTransform="matrix(1 9.777477e-03 9.770109e-03 -0.9992 -0.108 52.231)">
	<stop  offset="0" style="stop-color:#2581C4"/>
	<stop  offset="1" style="stop-color:#2581C4;stop-opacity:0"/>
</linearGradient>
<path class="st6" d="M79.5,47.7c2.6-0.1,4.5-3.5,4.3-6.9c-0.3-3.7-3-6-4.1-5.2C77.9,36.9,79.2,45.9,79.5,47.7"/>
<linearGradient id="SVGID_7_" gradientUnits="userSpaceOnUse" x1="87.17" y1="11.0294" x2="92.35" y2="11.0294" gradientTransform="matrix(1 0 0 -1 0 53.0394)">
	<stop  offset="0" style="stop-color:#2581C4"/>
	<stop  offset="1" style="stop-color:#2581C4;stop-opacity:0"/>
</linearGradient>
<path class="st7" d="M89.8,42h-2.5l0.1-5.7c0,2.3-0.1,4.2-0.1,5.7c-0.1,5.7-0.1,5.7-0.1,5.7h5.2"/>
<line class="st2" x1="92.3" y1="36.5" x2="86.6" y2="36.3"/>
<line class="st2" x1="95.2" y1="35.9" x2="95.2" y2="48.3"/>
<linearGradient id="SVGID_8_" gradientUnits="userSpaceOnUse" x1="68.8013" y1="33.3372" x2="72.5217" y2="33.3372" gradientTransform="matrix(1.5106 0 0 -1.9367 -8.7713 106.8592)">
	<stop  offset="0" style="stop-color:#2581C4"/>
	<stop  offset="1" style="stop-color:#2581C4;stop-opacity:0"/>
</linearGradient>
<path class="st8" d="M95.2,36.3c3.1,4.7,3.1,4.7,3.1,4.7l2.5-4.7v12"/>
<linearGradient id="SVGID_9_" gradientUnits="userSpaceOnUse" x1="74.6798" y1="33.4633" x2="77.3242" y2="33.4633" gradientTransform="matrix(1.5106 0 0 -2.1787 -8.7713 114.7715)">
	<stop  offset="0" style="stop-color:#2581C4"/>
	<stop  offset="1" style="stop-color:#2581C4;stop-opacity:0"/>
</linearGradient>
<polyline class="st9" points="104,35.5 108,41.4 108,35.5 108,48.3 "/>
<g>
	<linearGradient id="SVGID_10_" gradientUnits="userSpaceOnUse" x1="18.9243" y1="26.71" x2="100.78" y2="26.71">
		<stop  offset="0" style="stop-color:#6B360D"/>
		<stop  offset="0.1067" style="stop-color:#854C18"/>
		<stop  offset="0.2528" style="stop-color:#4E2D1A"/>
		<stop  offset="0.3876" style="stop-color:#925D1E"/>
		<stop  offset="0.5674" style="stop-color:#5B2700"/>
		<stop  offset="0.6798" style="stop-color:#5C2902"/>
		<stop  offset="0.7809" style="stop-color:#52301D"/>
		<stop  offset="0.8764" style="stop-color:#824215"/>
		<stop  offset="1" style="stop-color:#4E2D1A"/>
	</linearGradient>
	<rect x="18.9" y="9.4" class="st10" width="81.9" height="34.6"/>
</g>
</svg>
