<?xml version="1.0" encoding="utf-8"?>
<!-- Generator: Adobe Illustrator 24.0.2, SVG Export Plug-In . SVG Version: 6.00 Build 0)  -->
<svg version="1.1" id="Capa_1" xmlns="http://www.w3.org/2000/svg" xmlns:xlink="http://www.w3.org/1999/xlink" x="0px" y="0px"
	 viewBox="0 0 113.4 51.8" style="enable-background:new 0 0 113.4 51.8;" xml:space="preserve">
<style type="text/css">
	.st0{opacity:0.3;fill:url(#SVGID_1_);stroke:#010007;stroke-width:1.5;stroke-miterlimit:10;}
	.st1{opacity:0.3;fill:url(#SVGID_2_);stroke:#010007;stroke-width:1.5;stroke-miterlimit:10;}
	.st2{fill:url(#SVGID_3_);stroke:#000000;stroke-width:1.5;stroke-miterlimit:10;}
	.st3{fill:url(#SVGID_4_);stroke:#000000;stroke-width:1.5;stroke-miterlimit:10;}
	.st4{fill:none;stroke:#000000;stroke-width:1.5;stroke-miterlimit:10;}
	.st5{fill:url(#SVGID_5_);stroke:#000000;stroke-width:1.5;stroke-miterlimit:10;}
	.st6{fill:url(#SVGID_6_);stroke:#000000;stroke-width:1.5;stroke-miterlimit:10;}
	.st7{fill:url(#SVGID_7_);stroke:#000000;stroke-width:1.5;stroke-miterlimit:10;}
	.st8{fill:url(#SVGID_8_);stroke:#000000;stroke-width:1.5;stroke-miterlimit:10;}
	.st9{fill:url(#SVGID_9_);stroke:#000000;stroke-width:1.5;stroke-miterlimit:10;}
	.st10{fill:url(#SVGID_10_);stroke:#000000;stroke-width:1.5;stroke-miterlimit:10;}
	.st11{fill:url(#SVGID_11_);stroke:#000000;stroke-width:1.5;stroke-miterlimit:10;}
</style>
<g>
	<linearGradient id="SVGID_1_" gradientUnits="userSpaceOnUse" x1="2.0765" y1="25.875" x2="57.5341" y2="25.875">
		<stop  offset="2.247200e-02" style="stop-color:#603D37"/>
		<stop  offset="0.427" style="stop-color:#D54D1D"/>
		<stop  offset="0.736" style="stop-color:#EA7624"/>
		<stop  offset="1" style="stop-color:#F7BE29"/>
	</linearGradient>
	<rect x="2.1" y="3.4" class="st0" width="55.5" height="45"/>
</g>
<g>
	<linearGradient id="SVGID_2_" gradientUnits="userSpaceOnUse" x1="37.4179" y1="25.875" x2="111.3378" y2="25.875">
		<stop  offset="0" style="stop-color:#7BB9E7"/>
		<stop  offset="8.299777e-02" style="stop-color:#72B4E4"/>
		<stop  offset="0.221" style="stop-color:#58A7DB"/>
		<stop  offset="0.3958" style="stop-color:#2F91CE"/>
		<stop  offset="0.5674" style="stop-color:#0078BE"/>
		<stop  offset="1" style="stop-color:#154F9E"/>
	</linearGradient>
	<rect x="37.4" y="3.4" class="st1" width="73.9" height="45"/>
</g>
<linearGradient id="SVGID_3_" gradientUnits="userSpaceOnUse" x1="3.8315" y1="14.7399" x2="28.0289" y2="14.7399">
	<stop  offset="0" style="stop-color:#E30B13"/>
	<stop  offset="0.1413" style="stop-color:#E30B13;stop-opacity:0.8587"/>
	<stop  offset="1" style="stop-color:#E30B13;stop-opacity:0"/>
</linearGradient>
<path class="st2" d="M3.8,7.9C13,25,18.4,13.5,18.4,13.5l4.7,8.1l5-13.7"/>
<linearGradient id="SVGID_4_" gradientUnits="userSpaceOnUse" x1="19.7869" y1="16.4345" x2="34.7864" y2="24.1899" gradientTransform="matrix(1 0 0 -1 0 53.0394)">
	<stop  offset="0" style="stop-color:#E30B13"/>
	<stop  offset="8.962709e-02" style="stop-color:#E30B13;stop-opacity:0.9104"/>
	<stop  offset="1" style="stop-color:#E30B13;stop-opacity:0"/>
</linearGradient>
<path class="st3" d="M22.9,22.4c-0.1,0.3-0.2,0.6-0.2,0.8c-4.3,16,12.3-1.6,12.3-1.6C31.7,43,31.7,43,31.7,43"/>
<line class="st4" x1="16.9" y1="42.2" x2="22.7" y2="23.2"/>
<linearGradient id="SVGID_5_" gradientUnits="userSpaceOnUse" x1="38.8067" y1="26.0789" x2="54.7524" y2="26.0789" gradientTransform="matrix(1 0 0 -1 0 53.0394)">
	<stop  offset="5.618000e-03" style="stop-color:#EB7A44"/>
	<stop  offset="0.7438" style="stop-color:#F6B438"/>
	<stop  offset="1" style="stop-color:#FAC934"/>
</linearGradient>
<polyline class="st5" points="38.8,43 46.5,10.9 54.8,42.3 43.5,27 54.8,27 "/>
<linearGradient id="SVGID_6_" gradientUnits="userSpaceOnUse" x1="45.8374" y1="34.7336" x2="49.6935" y2="34.7336" gradientTransform="matrix(1.5106 0 0 -1.9367 -8.7713 106.8592)">
	<stop  offset="0" style="stop-color:#2581C4"/>
	<stop  offset="1" style="stop-color:#2581C4;stop-opacity:0"/>
</linearGradient>
<path class="st6" d="M66.3,34.5c-2.9-0.5-5.4,1.6-5.8,4c-0.4,2.8,1.8,6.3,5.2,6.3"/>
<linearGradient id="SVGID_7_" gradientUnits="userSpaceOnUse" x1="68.6374" y1="13.0177" x2="76.062" y2="13.0177" gradientTransform="matrix(1 0 0 -1 0 53.0394)">
	<stop  offset="0" style="stop-color:#2581C4"/>
	<stop  offset="1" style="stop-color:#2581C4;stop-opacity:0"/>
</linearGradient>
<polygon class="st7" points="72.5,35.3 68.6,44.8 76.1,44.8 "/>
<linearGradient id="SVGID_8_" gradientUnits="userSpaceOnUse" x1="78.792" y1="13.447" x2="83.4963" y2="13.447" gradientTransform="matrix(1 9.777477e-03 9.770109e-03 -0.9992 -0.108 52.231)">
	<stop  offset="0" style="stop-color:#2581C4"/>
	<stop  offset="1" style="stop-color:#2581C4;stop-opacity:0"/>
</linearGradient>
<path class="st8" d="M79.5,44.8c2.4-0.1,4.2-3,4-5.8c-0.3-3.1-2.8-5.1-3.9-4.4C78,35.6,79.3,43.2,79.5,44.8"/>
<linearGradient id="SVGID_9_" gradientUnits="userSpaceOnUse" x1="86.6461" y1="13.0856" x2="91.4595" y2="13.0856" gradientTransform="matrix(1 0 0 -1 0 53.0394)">
	<stop  offset="0" style="stop-color:#2581C4"/>
	<stop  offset="1" style="stop-color:#2581C4;stop-opacity:0"/>
</linearGradient>
<path class="st9" d="M89.1,40h-2.3l0.1-4.8c0,2,0,3.6-0.1,4.8c-0.1,4.8-0.1,4.8-0.1,4.8h4.8"/>
<line class="st4" x1="91.5" y1="35.2" x2="86.1" y2="35.1"/>
<line class="st4" x1="94.1" y1="34.7" x2="94.1" y2="45.3"/>
<linearGradient id="SVGID_10_" gradientUnits="userSpaceOnUse" x1="68.0802" y1="34.4212" x2="71.5374" y2="34.4212" gradientTransform="matrix(1.5106 0 0 -1.9367 -8.7713 106.8592)">
	<stop  offset="0" style="stop-color:#2581C4"/>
	<stop  offset="1" style="stop-color:#2581C4;stop-opacity:0"/>
</linearGradient>
<path class="st10" d="M94.1,35.1c2.9,4,2.9,4,2.9,4l2.3-4v10.1"/>
<linearGradient id="SVGID_11_" gradientUnits="userSpaceOnUse" x1="73.5427" y1="34.397" x2="76" y2="34.397" gradientTransform="matrix(1.5106 0 0 -2.1787 -8.7713 114.7715)">
	<stop  offset="0" style="stop-color:#2581C4"/>
	<stop  offset="1" style="stop-color:#2581C4;stop-opacity:0"/>
</linearGradient>
<polyline class="st11" points="102.3,34.4 106,39.4 106,34.4 106,45.3 "/>
</svg>
